<svg width="36" height="35" viewBox="0 0 36 35" fill="none" xmlns="http://www.w3.org/2000/svg">
<path d="M25.689 2.8741C25.7293 2.83925 25.7586 2.79345 25.7733 2.74226C25.788 2.69107 25.7876 2.6367 25.772 2.58575C25.7565 2.53481 25.7264 2.48948 25.6856 2.45528C25.6447 2.42108 25.5948 2.39947 25.542 2.3931C24.087 2.1931 20.748 1.7251 20.348 1.7251C19.7752 1.91922 19.2481 2.22819 18.799 2.6331C18.199 3.0741 4.04396 13.3151 3.78996 13.5821C3.53305 13.85 3.30078 14.1405 3.09596 14.4501C2.8733 14.7789 2.68117 15.1273 2.52196 15.4911C2.39999 15.755 2.29739 16.0274 2.21496 16.3061L2.09495 16.7061C1.96817 17.1875 1.88319 17.679 1.84096 18.1751C1.82796 18.2681 1.82796 18.3621 1.81396 18.4551C1.78496 18.9578 1.78931 19.4619 1.82696 19.9641C1.83996 20.0711 1.83996 20.1911 1.85396 20.2981C1.90931 20.8601 2.00286 21.4178 2.13396 21.9671C2.15867 22.089 2.18972 22.2095 2.22696 22.3281C2.33396 22.7151 2.45397 23.1161 2.58797 23.5161C2.7613 23.9968 2.96129 24.4774 3.18796 24.9581C3.40457 25.42 3.64524 25.8703 3.90896 26.3071C4.16296 26.7341 4.44295 27.1621 4.73695 27.5751C4.76395 27.6151 4.80395 27.6551 4.82995 27.6951C5.09695 28.0691 5.37696 28.4161 5.67096 28.7631C6.00496 29.1501 6.35196 29.5241 6.71297 29.8711C7.08097 30.231 7.4689 30.5698 7.87495 30.8861C8.28895 31.2201 8.71596 31.5141 9.14396 31.7941C9.151 31.8017 9.16064 31.8063 9.17096 31.8071C9.6417 32.1071 10.1325 32.3744 10.64 32.6071C10.854 32.7001 11.054 32.7941 11.268 32.8741C11.611 33.0182 11.9635 33.1389 12.323 33.2351C12.55 33.3021 12.764 33.3551 12.977 33.4091C13.4374 33.5139 13.9056 33.5808 14.377 33.6091L14.417 33.5821L14.444 33.6221C14.8776 33.6495 15.3128 33.6361 15.744 33.5821C16.1373 33.5413 16.5262 33.4653 16.906 33.3551C16.919 33.3551 16.946 33.3421 16.959 33.3421C17.368 33.2188 17.7522 33.0245 18.094 32.7681C20.23 31.2061 29.831 24.1821 32.822 22.0061C33.1795 21.6893 33.4978 21.3307 33.77 20.9381C34.117 19.7501 34.731 16.6781 34.998 15.3431C35.0073 15.2942 35.0022 15.2436 34.9832 15.1975C34.9643 15.1514 34.9324 15.1118 34.8914 15.0835C34.8504 15.0553 34.8021 15.0395 34.7523 15.0382C34.7025 15.0369 34.6534 15.05 34.611 15.0761L13.835 30.2741C13.6558 30.3921 13.4475 30.4583 13.2331 30.4653C13.0187 30.4724 12.8065 30.42 12.62 30.3141C12.3548 30.1801 12.0964 30.033 11.846 29.8731L11.672 29.7661C11.2749 29.5207 10.8916 29.2536 10.524 28.9661C10.1137 28.6499 9.72142 28.3111 9.34897 27.9511C8.98797 27.6041 8.62796 27.2431 8.29396 26.8561C7.98696 26.5091 7.70696 26.1621 7.42596 25.7741C7.37246 25.706 7.32336 25.6345 7.27896 25.5601C6.99896 25.1191 5.96996 23.4601 5.77896 23.0761C5.55196 22.5951 5.35195 22.1281 5.17895 21.6471C5.01895 21.2061 4.87197 20.7521 4.75197 20.3121C4.74055 20.2439 4.7228 20.177 4.69896 20.1121C4.61896 19.7651 4.53895 19.4311 4.48495 19.0971C4.44688 18.9224 4.45931 18.7406 4.52075 18.5727C4.58219 18.4048 4.69013 18.2579 4.83195 18.1491L12.39 12.6211L13.258 11.9931L25.689 2.8741ZM32.606 20.2861L32.646 20.2591C32.643 20.2817 32.6386 20.304 32.633 20.3261L32.606 20.2861ZM26.517 22.8631L26.53 22.8901C26.5228 22.891 26.5154 22.8904 26.5085 22.8881C26.5016 22.8859 26.4952 22.8821 26.49 22.8771L26.517 22.8631ZM25.689 25.3471L25.716 25.3871H25.649L25.689 25.3471Z" fill="#00B5E2" stroke="#00B5E2" stroke-width="2" stroke-miterlimit="10"/>
<path d="M26.331 10.0851L10.908 21.3631C10.8431 21.401 10.771 21.4248 10.6963 21.4332C10.6216 21.4415 10.546 21.4341 10.4744 21.4115C10.4027 21.3889 10.3366 21.3516 10.2802 21.3019C10.2238 21.2523 10.1785 21.1914 10.147 21.1231C10.0134 20.8852 9.89286 20.6402 9.786 20.3891C9.626 20.0551 9.492 19.7081 9.359 19.3741C9.31764 19.2766 9.30835 19.1684 9.33243 19.0653C9.35651 18.9621 9.41274 18.8693 9.493 18.8001L24.393 7.90013C24.4859 7.83717 24.5976 7.80808 24.7094 7.81773C24.8212 7.82738 24.9263 7.87518 25.007 7.95312C25.274 8.18012 25.541 8.42011 25.795 8.67411C25.982 8.86111 26.169 9.04812 26.342 9.24812C26.403 9.29987 26.4518 9.36446 26.4849 9.43725C26.518 9.51005 26.5346 9.58925 26.5335 9.66922C26.5325 9.74918 26.5138 9.82791 26.4788 9.89981C26.4438 9.9717 26.3933 10.035 26.331 10.0851Z" fill="#00B5E2" stroke="#00B5E2" stroke-width="2" stroke-miterlimit="10"/>
<path d="M28.133 12.5961C28.1968 12.5578 28.268 12.5335 28.3418 12.525C28.4157 12.5164 28.4906 12.5237 28.5614 12.5464C28.6323 12.5692 28.6974 12.6068 28.7525 12.6567C28.8076 12.7067 28.8514 12.7678 28.881 12.8361C29.001 13.0761 29.121 13.3171 29.228 13.5701C29.375 13.9041 29.508 14.2241 29.628 14.5581C29.668 14.6622 29.674 14.7763 29.6453 14.8841C29.6166 14.9918 29.5545 15.0877 29.468 15.1581L14.673 25.9741C14.5809 26.0368 14.4704 26.067 14.3591 26.0597C14.2479 26.0525 14.1422 26.0083 14.059 25.9341C13.792 25.7201 13.525 25.4801 13.271 25.2401C13.084 25.0661 12.91 24.8791 12.724 24.6931C12.667 24.638 12.6222 24.5716 12.5925 24.4981C12.5627 24.4247 12.5487 24.3458 12.5512 24.2666C12.5537 24.1874 12.5728 24.1096 12.6072 24.0382C12.6417 23.9668 12.6906 23.9034 12.751 23.8521L28.133 12.5961Z" fill="#00B5E2" stroke="#00B5E2" stroke-width="2" stroke-miterlimit="10"/>
</svg>
